<svg xmlns="http://www.w3.org/2000/svg" width="320" height="50" fill="none" viewBox="0 0 320 50"><path fill="#fff" d="M0 0h320v50H0z"/><path fill="#000" d="M41.267 16.723q.962 0 1.826.357a4.1 4.1 0 0 1 1.527 1.096q.672.739 1.054 1.9.382 1.155.382 2.781v.017q0 2.017-.58 3.453-.581 1.436-1.67 2.208-1.08.765-2.58.764-1.105 0-1.993-.399a4.1 4.1 0 0 1-1.461-1.112A3.9 3.9 0 0 1 37 26.161l-.017-.091h2.1l.034.083q.157.415.448.73.3.316.714.49.423.165.946.166.947 0 1.544-.556.606-.564.905-1.503.306-.946.349-2.091.008-.125.008-.241v-.24l-.374-2.001q0-.68-.315-1.237a2.4 2.4 0 0 0-.855-.88 2.27 2.27 0 0 0-1.204-.324 2.3 2.3 0 0 0-1.187.316q-.54.315-.863.863a2.3 2.3 0 0 0-.324 1.212v.017q0 .697.307 1.236.307.532.839.839.531.307 1.212.307t1.22-.299.855-.83.315-1.204v-.016h.498v2.208h-.29a2.9 2.9 0 0 1-.64.88q-.423.406-1.045.655-.614.25-1.445.25-1.145 0-2.025-.515a3.73 3.73 0 0 1-1.386-1.411q-.498-.897-.498-2.026v-.016q0-1.22.564-2.167a4 4 0 0 1 1.577-1.494q1.013-.548 2.3-.548m8.558 10.667a1.3 1.3 0 0 1-.947-.374 1.28 1.28 0 0 1-.373-.93q0-.555.373-.93.382-.381.947-.381.572 0 .946.382.373.373.373.93 0 .547-.373.93-.374.373-.946.373m0-6.16a1.3 1.3 0 0 1-.947-.373 1.28 1.28 0 0 1-.373-.93q0-.555.373-.93.382-.381.947-.381.572 0 .946.382.373.373.373.93 0 .546-.373.929-.374.373-.946.373M59.404 29v-2.3h-5.86v-1.75l.946-1.62a156 156 0 0 1 1.959-3.22q.498-.796.988-1.569.498-.78.996-1.519h3.013v7.91h1.619v1.769h-1.62V29zm-3.868-4.018h3.901v-6.25h-.124l-.756 1.162q-.381.598-.772 1.22-.39.622-.772 1.254-.381.623-.755 1.253-.374.622-.722 1.237zM68.02 29v-9.87h-.15l-2.98 2.1v-2.008l3.13-2.2h2.133V29z"/><path fill="#000" fill-rule="evenodd" d="M246.365 18.033c0-.633-.477-1.146-1.067-1.146h-1.066c-.589 0-1.067.513-1.067 1.146v9.934c0 .633.478 1.146 1.067 1.146h1.066c.59 0 1.067-.513 1.067-1.146zm-7.434 1.3h1.067c.589 0 1.066.525 1.066 1.173v7.433c0 .649-.477 1.174-1.066 1.174h-1.067c-.589 0-1.067-.525-1.067-1.174v-7.433c0-.648.478-1.174 1.067-1.174m-4.332 2.648h-1.066c-.589 0-1.067.532-1.067 1.189v4.754c0 .657.478 1.19 1.067 1.19h1.066c.589 0 1.067-.533 1.067-1.19V23.17c0-.657-.478-1.189-1.067-1.189m-5.301 2.445h-1.066c-.589 0-1.067.525-1.067 1.172v2.344c0 .647.478 1.171 1.067 1.171h1.066c.59 0 1.067-.524 1.067-1.171v-2.344c0-.647-.477-1.172-1.067-1.172m32.638-5.124c2.488 0 4.88.922 6.682 2.576a.354.354 0 0 0 .486-.004l1.298-1.263a.34.34 0 0 0 .105-.248.35.35 0 0 0-.108-.246c-4.731-4.375-12.195-4.375-16.926 0a.34.34 0 0 0-.003.494l1.298 1.263c.133.13.35.132.486.004a9.9 9.9 0 0 1 6.682-2.576m-.003 4.22c1.357 0 2.666.512 3.672 1.436a.34.34 0 0 0 .483-.006l1.288-1.32a.367.367 0 0 0-.005-.52 7.9 7.9 0 0 0-10.873.001.36.36 0 0 0-.109.259.37.37 0 0 0 .104.26l1.287 1.32a.34.34 0 0 0 .483.006 5.43 5.43 0 0 1 3.67-1.436m2.524 2.794a.4.4 0 0 1-.102.28l-2.177 2.455a.32.32 0 0 1-.241.113.32.32 0 0 1-.242-.113l-2.177-2.454a.4.4 0 0 1-.102-.281.4.4 0 0 1 .113-.276c1.39-1.314 3.426-1.314 4.816 0 .07.07.111.17.112.276" clip-rule="evenodd"/><rect width="24" height="12" x="278.007" y="17" stroke="#000" opacity="0.35" rx="3.8"/><path fill="#000" d="M303.507 21.281v4.076a2.21 2.21 0 0 0 1.328-2.038c0-.89-.523-1.693-1.328-2.038" opacity="0.4"/><rect width="21" height="9" x="279.507" y="18.5" fill="#000" rx="2.5"/></svg>